<mxfile>
    <diagram id="7sulTF2ZvsiVhPHlAoi-" name="Page-1">
        <mxGraphModel dx="4504" dy="2602" grid="0" gridSize="10" guides="1" tooltips="1" connect="1" arrows="1" fold="1" page="1" pageScale="1" pageWidth="827" pageHeight="1169" background="#DAD2D8" math="0" shadow="0">
            <root>
                <mxCell id="0"/>
                <mxCell id="1" parent="0"/>
                <mxCell id="i9V1KB0DLarKF3yOu1jW-63" value="" style="group" parent="1" vertex="1" connectable="0">
                    <mxGeometry x="-1914" y="-360" width="1543" height="979" as="geometry"/>
                </mxCell>
                <mxCell id="i9V1KB0DLarKF3yOu1jW-62" value="" style="rounded=0;whiteSpace=wrap;html=1;sketch=0;fontFamily=Lucida Console;fontSize=25;fontColor=#0F8B8D;strokeColor=#0F8B8D;strokeWidth=1;verticalAlign=top;fillColor=none;" parent="i9V1KB0DLarKF3yOu1jW-63" vertex="1">
                    <mxGeometry x="-4" y="23" width="1543" height="979" as="geometry"/>
                </mxCell>
                <mxCell id="U2APOLvZmVnuvDlF9ksb-117" value="" style="group" parent="i9V1KB0DLarKF3yOu1jW-63" vertex="1" connectable="0">
                    <mxGeometry x="552" y="89" width="439" height="130" as="geometry"/>
                </mxCell>
                <mxCell id="U2APOLvZmVnuvDlF9ksb-114" value="&lt;font style=&quot;font-size: 70px&quot;&gt;BANCOS&lt;/font&gt;" style="text;html=1;align=center;verticalAlign=middle;whiteSpace=wrap;rounded=0;sketch=0;fontFamily=Lucida Console;fontSize=41;fontStyle=1;fontColor=#0F8B8D;" parent="U2APOLvZmVnuvDlF9ksb-117" vertex="1">
                    <mxGeometry x="119.72727272727272" y="20.4375" width="319.27272727272725" height="68.125" as="geometry"/>
                </mxCell>
                <mxCell id="i9V1KB0DLarKF3yOu1jW-61" value="" style="shape=datastore;whiteSpace=wrap;html=1;rounded=0;sketch=0;fontFamily=Lucida Console;fontSize=25;fontColor=#143642;strokeWidth=1;verticalAlign=top;strokeColor=#0F8B8D;" parent="U2APOLvZmVnuvDlF9ksb-117" vertex="1">
                    <mxGeometry x="14" y="-0.2799999999999976" width="110" height="109.56" as="geometry"/>
                </mxCell>
                <mxCell id="i9V1KB0DLarKF3yOu1jW-56" value="" style="group" parent="i9V1KB0DLarKF3yOu1jW-63" vertex="1" connectable="0">
                    <mxGeometry x="760" y="289" width="672" height="401" as="geometry"/>
                </mxCell>
                <mxCell id="i9V1KB0DLarKF3yOu1jW-55" value="" style="rounded=0;whiteSpace=wrap;html=1;sketch=0;fontFamily=Lucida Console;fontSize=25;fontColor=#143642;strokeColor=#FFFFFF;strokeWidth=1;fillColor=none;verticalAlign=top;" parent="i9V1KB0DLarKF3yOu1jW-56" vertex="1">
                    <mxGeometry width="672" height="401" as="geometry"/>
                </mxCell>
                <mxCell id="i9V1KB0DLarKF3yOu1jW-30" value="" style="group" parent="i9V1KB0DLarKF3yOu1jW-56" vertex="1" connectable="0">
                    <mxGeometry x="16" y="30" width="628" height="343" as="geometry"/>
                </mxCell>
                <mxCell id="i9V1KB0DLarKF3yOu1jW-6" value="&lt;font style=&quot;font-size: 35px&quot;&gt;jogos&lt;/font&gt;" style="html=1;strokeColor=none;labelPosition=center;verticalLabelPosition=middle;verticalAlign=top;align=center;fontSize=25;outlineConnect=0;spacingTop=-6;fontColor=#FFFFFF;shape=mxgraph.sitemap.game;rounded=0;sketch=0;fontFamily=Lucida Console;fillColor=#000000;" parent="i9V1KB0DLarKF3yOu1jW-30" vertex="1">
                    <mxGeometry y="110" width="198" height="123" as="geometry"/>
                </mxCell>
                <mxCell id="i9V1KB0DLarKF3yOu1jW-21" value="" style="group;strokeColor=#FFFFFF;" parent="i9V1KB0DLarKF3yOu1jW-30" vertex="1" connectable="0">
                    <mxGeometry x="289" width="339" height="343" as="geometry"/>
                </mxCell>
                <mxCell id="i9V1KB0DLarKF3yOu1jW-22" value="" style="rounded=0;whiteSpace=wrap;html=1;sketch=0;fontFamily=Lucida Console;fontSize=12;fontColor=#143642;strokeWidth=1;fillColor=none;strokeColor=#FFFFFF;" parent="i9V1KB0DLarKF3yOu1jW-21" vertex="1">
                    <mxGeometry width="339" height="343" as="geometry"/>
                </mxCell>
                <mxCell id="i9V1KB0DLarKF3yOu1jW-23" value="popularidade: float" style="rounded=0;whiteSpace=wrap;html=1;sketch=0;fontFamily=Lucida Console;fontSize=12;fontColor=#143642;strokeWidth=1;fillColor=#FFFFFF;strokeColor=#0F8B8D;" parent="i9V1KB0DLarKF3yOu1jW-21" vertex="1">
                    <mxGeometry x="23" y="141" width="120" height="60" as="geometry"/>
                </mxCell>
                <mxCell id="i9V1KB0DLarKF3yOu1jW-24" value="categoria: string" style="rounded=0;whiteSpace=wrap;html=1;sketch=0;fontFamily=Lucida Console;fontSize=12;fontColor=#143642;strokeWidth=1;fillColor=#FFFFFF;strokeColor=#0F8B8D;" parent="i9V1KB0DLarKF3yOu1jW-21" vertex="1">
                    <mxGeometry x="20" y="255" width="120" height="60" as="geometry"/>
                </mxCell>
                <mxCell id="i9V1KB0DLarKF3yOu1jW-25" value="nome: string" style="rounded=0;whiteSpace=wrap;html=1;sketch=0;fontFamily=Lucida Console;fontSize=12;fontColor=#143642;strokeWidth=1;fillColor=#FFFFFF;strokeColor=#0F8B8D;" parent="i9V1KB0DLarKF3yOu1jW-21" vertex="1">
                    <mxGeometry x="23" y="27" width="120" height="60" as="geometry"/>
                </mxCell>
                <mxCell id="i9V1KB0DLarKF3yOu1jW-27" value="data: string" style="rounded=0;whiteSpace=wrap;html=1;sketch=0;fontFamily=Lucida Console;fontSize=12;fontColor=#143642;strokeWidth=1;fillColor=#FFFFFF;strokeColor=#0F8B8D;" parent="i9V1KB0DLarKF3yOu1jW-21" vertex="1">
                    <mxGeometry x="193" y="141" width="120" height="60" as="geometry"/>
                </mxCell>
                <mxCell id="i9V1KB0DLarKF3yOu1jW-28" value="console: string" style="rounded=0;whiteSpace=wrap;html=1;sketch=0;fontFamily=Lucida Console;fontSize=12;fontColor=#143642;strokeWidth=1;fillColor=#FFFFFF;strokeColor=#0F8B8D;" parent="i9V1KB0DLarKF3yOu1jW-21" vertex="1">
                    <mxGeometry x="189" y="27" width="120" height="60" as="geometry"/>
                </mxCell>
                <mxCell id="i9V1KB0DLarKF3yOu1jW-29" style="edgeStyle=orthogonalEdgeStyle;curved=0;rounded=1;sketch=0;orthogonalLoop=1;jettySize=auto;html=1;fontFamily=Lucida Console;fontSize=25;fontColor=#143642;fillColor=#FAE5C7;strokeColor=#FFFFFF;" parent="i9V1KB0DLarKF3yOu1jW-30" source="i9V1KB0DLarKF3yOu1jW-6" target="i9V1KB0DLarKF3yOu1jW-22" edge="1">
                    <mxGeometry relative="1" as="geometry"/>
                </mxCell>
                <mxCell id="i9V1KB0DLarKF3yOu1jW-35" value="" style="shape=datastore;whiteSpace=wrap;html=1;rounded=0;sketch=0;fontFamily=Lucida Console;fontSize=25;fontColor=#143642;strokeWidth=1;fillColor=#FFFFFF;verticalAlign=top;strokeColor=#0F8B8D;" parent="i9V1KB0DLarKF3yOu1jW-30" vertex="1">
                    <mxGeometry x="205" y="268" width="64" height="61" as="geometry"/>
                </mxCell>
                <mxCell id="i9V1KB0DLarKF3yOu1jW-60" value="" style="group" parent="i9V1KB0DLarKF3yOu1jW-63" vertex="1" connectable="0">
                    <mxGeometry x="65" y="304" width="612" height="399" as="geometry"/>
                </mxCell>
                <mxCell id="i9V1KB0DLarKF3yOu1jW-59" value="" style="rounded=0;whiteSpace=wrap;html=1;sketch=0;fontFamily=Lucida Console;fontSize=25;fontColor=#143642;strokeColor=#FFFFFF;strokeWidth=1;fillColor=none;verticalAlign=top;" parent="i9V1KB0DLarKF3yOu1jW-60" vertex="1">
                    <mxGeometry width="612" height="399" as="geometry"/>
                </mxCell>
                <mxCell id="i9V1KB0DLarKF3yOu1jW-20" value="" style="group" parent="i9V1KB0DLarKF3yOu1jW-60" vertex="1" connectable="0">
                    <mxGeometry x="30" y="32" width="485" height="343" as="geometry"/>
                </mxCell>
                <mxCell id="i9V1KB0DLarKF3yOu1jW-1" value="&lt;b&gt;user&lt;/b&gt;" style="shape=umlActor;verticalLabelPosition=bottom;verticalAlign=top;html=1;outlineConnect=0;rounded=0;sketch=0;fontFamily=Lucida Console;fontSize=41;fontColor=#143642;strokeWidth=5;fillColor=none;" parent="i9V1KB0DLarKF3yOu1jW-20" vertex="1">
                    <mxGeometry x="455" y="141.5" width="30" height="60" as="geometry"/>
                </mxCell>
                <mxCell id="i9V1KB0DLarKF3yOu1jW-17" value="" style="group;strokeColor=#FFFFFF;" parent="i9V1KB0DLarKF3yOu1jW-20" vertex="1" connectable="0">
                    <mxGeometry width="339" height="343" as="geometry"/>
                </mxCell>
                <mxCell id="i9V1KB0DLarKF3yOu1jW-16" value="" style="rounded=0;whiteSpace=wrap;html=1;sketch=0;fontFamily=Lucida Console;fontSize=12;fontColor=#143642;strokeWidth=1;fillColor=none;strokeColor=#FFFFFF;" parent="i9V1KB0DLarKF3yOu1jW-17" vertex="1">
                    <mxGeometry width="339" height="343" as="geometry"/>
                </mxCell>
                <mxCell id="i9V1KB0DLarKF3yOu1jW-7" value="data: string" style="rounded=0;whiteSpace=wrap;html=1;sketch=0;fontFamily=Lucida Console;fontSize=12;fontColor=#143642;strokeWidth=1;fillColor=#FFFFFF;strokeColor=#0F8B8D;" parent="i9V1KB0DLarKF3yOu1jW-17" vertex="1">
                    <mxGeometry x="23" y="141" width="120" height="60" as="geometry"/>
                </mxCell>
                <mxCell id="i9V1KB0DLarKF3yOu1jW-8" value="email: string" style="rounded=0;whiteSpace=wrap;html=1;sketch=0;fontFamily=Lucida Console;fontSize=12;fontColor=#143642;strokeWidth=1;fillColor=#FFFFFF;strokeColor=#0F8B8D;" parent="i9V1KB0DLarKF3yOu1jW-17" vertex="1">
                    <mxGeometry x="20" y="255" width="120" height="60" as="geometry"/>
                </mxCell>
                <mxCell id="i9V1KB0DLarKF3yOu1jW-9" value="nome: string" style="rounded=0;whiteSpace=wrap;html=1;sketch=0;fontFamily=Lucida Console;fontSize=12;fontColor=#143642;strokeWidth=1;fillColor=#FFFFFF;strokeColor=#0F8B8D;" parent="i9V1KB0DLarKF3yOu1jW-17" vertex="1">
                    <mxGeometry x="23" y="27" width="120" height="60" as="geometry"/>
                </mxCell>
                <mxCell id="i9V1KB0DLarKF3yOu1jW-10" value="pontos: int" style="rounded=0;whiteSpace=wrap;html=1;sketch=0;fontFamily=Lucida Console;fontSize=12;fontColor=#143642;strokeWidth=1;fillColor=#FFFFFF;strokeColor=#0F8B8D;" parent="i9V1KB0DLarKF3yOu1jW-17" vertex="1">
                    <mxGeometry x="193" y="255" width="120" height="60" as="geometry"/>
                </mxCell>
                <mxCell id="i9V1KB0DLarKF3yOu1jW-13" value="jogos: object" style="rounded=0;whiteSpace=wrap;html=1;sketch=0;fontFamily=Lucida Console;fontSize=12;fontColor=#143642;strokeWidth=1;fillColor=#FFFFFF;strokeColor=#0F8B8D;" parent="i9V1KB0DLarKF3yOu1jW-17" vertex="1">
                    <mxGeometry x="193" y="141" width="120" height="60" as="geometry"/>
                </mxCell>
                <mxCell id="i9V1KB0DLarKF3yOu1jW-14" value="nivel: string" style="rounded=0;whiteSpace=wrap;html=1;sketch=0;fontFamily=Lucida Console;fontSize=12;fontColor=#143642;strokeWidth=1;fillColor=#FFFFFF;strokeColor=#0F8B8D;" parent="i9V1KB0DLarKF3yOu1jW-17" vertex="1">
                    <mxGeometry x="189" y="27" width="120" height="60" as="geometry"/>
                </mxCell>
                <mxCell id="i9V1KB0DLarKF3yOu1jW-19" style="edgeStyle=orthogonalEdgeStyle;curved=0;rounded=1;sketch=0;orthogonalLoop=1;jettySize=auto;html=1;fontFamily=Lucida Console;fontSize=12;fontColor=#143642;fillColor=#FAE5C7;entryX=1;entryY=0.5;entryDx=0;entryDy=0;strokeColor=#FFFFFF;" parent="i9V1KB0DLarKF3yOu1jW-20" source="i9V1KB0DLarKF3yOu1jW-1" target="i9V1KB0DLarKF3yOu1jW-16" edge="1">
                    <mxGeometry relative="1" as="geometry">
                        <mxPoint x="400" y="65" as="targetPoint"/>
                    </mxGeometry>
                </mxCell>
                <mxCell id="i9V1KB0DLarKF3yOu1jW-34" value="" style="shape=datastore;whiteSpace=wrap;html=1;rounded=0;sketch=0;fontFamily=Lucida Console;fontSize=25;fontColor=#143642;strokeWidth=1;fillColor=#FFFFFF;verticalAlign=top;strokeColor=#0F8B8D;" parent="i9V1KB0DLarKF3yOu1jW-20" vertex="1">
                    <mxGeometry x="364" y="277" width="58" height="60" as="geometry"/>
                </mxCell>
                <mxCell id="i9V1KB0DLarKF3yOu1jW-53" value="" style="group" parent="i9V1KB0DLarKF3yOu1jW-63" vertex="1" connectable="0">
                    <mxGeometry x="835" y="749" width="599" height="179" as="geometry"/>
                </mxCell>
                <mxCell id="i9V1KB0DLarKF3yOu1jW-46" value="" style="shape=datastore;whiteSpace=wrap;html=1;rounded=0;sketch=0;fontFamily=Lucida Console;fontSize=25;fontColor=#143642;strokeWidth=1;fillColor=#FFFFFF;verticalAlign=top;strokeColor=#0F8B8D;" parent="i9V1KB0DLarKF3yOu1jW-53" vertex="1">
                    <mxGeometry x="142" y="96" width="64" height="61" as="geometry"/>
                </mxCell>
                <mxCell id="i9V1KB0DLarKF3yOu1jW-51" value="" style="group" parent="i9V1KB0DLarKF3yOu1jW-53" vertex="1" connectable="0">
                    <mxGeometry x="223" width="330" height="96" as="geometry"/>
                </mxCell>
                <mxCell id="i9V1KB0DLarKF3yOu1jW-50" value="" style="rounded=0;whiteSpace=wrap;html=1;sketch=0;fontFamily=Lucida Console;fontSize=25;fontColor=#143642;strokeWidth=1;verticalAlign=top;fillColor=none;strokeColor=#FFFFFF;" parent="i9V1KB0DLarKF3yOu1jW-51" vertex="1">
                    <mxGeometry width="330" height="96" as="geometry"/>
                </mxCell>
                <mxCell id="i9V1KB0DLarKF3yOu1jW-44" value="senha: string" style="rounded=0;whiteSpace=wrap;html=1;sketch=0;fontFamily=Lucida Console;fontSize=12;fontColor=#143642;strokeWidth=1;fillColor=#FFFFFF;strokeColor=#0F8B8D;" parent="i9V1KB0DLarKF3yOu1jW-51" vertex="1">
                    <mxGeometry x="186" y="18" width="120" height="60" as="geometry"/>
                </mxCell>
                <mxCell id="i9V1KB0DLarKF3yOu1jW-42" value="login: string" style="rounded=0;whiteSpace=wrap;html=1;sketch=0;fontFamily=Lucida Console;fontSize=12;fontColor=#143642;strokeWidth=1;fillColor=#FFFFFF;strokeColor=#0F8B8D;" parent="i9V1KB0DLarKF3yOu1jW-51" vertex="1">
                    <mxGeometry x="26" y="18" width="120" height="60" as="geometry"/>
                </mxCell>
                <mxCell id="i9V1KB0DLarKF3yOu1jW-52" style="edgeStyle=orthogonalEdgeStyle;curved=0;rounded=1;sketch=0;orthogonalLoop=1;jettySize=auto;html=1;entryX=0;entryY=0.5;entryDx=0;entryDy=0;fontFamily=Lucida Console;fontSize=25;fontColor=#143642;strokeColor=#FFFFFF;fillColor=#FAE5C7;" parent="i9V1KB0DLarKF3yOu1jW-53" source="i9V1KB0DLarKF3yOu1jW-32" target="i9V1KB0DLarKF3yOu1jW-50" edge="1">
                    <mxGeometry relative="1" as="geometry"/>
                </mxCell>
                <mxCell id="i9V1KB0DLarKF3yOu1jW-58" value="" style="group" parent="i9V1KB0DLarKF3yOu1jW-53" vertex="1" connectable="0">
                    <mxGeometry x="-86" y="-26" width="685" height="205" as="geometry"/>
                </mxCell>
                <mxCell id="i9V1KB0DLarKF3yOu1jW-57" value="" style="rounded=0;whiteSpace=wrap;html=1;sketch=0;fontFamily=Lucida Console;fontSize=25;fontColor=#143642;strokeColor=#FFFFFF;strokeWidth=1;fillColor=none;verticalAlign=top;" parent="i9V1KB0DLarKF3yOu1jW-58" vertex="1">
                    <mxGeometry width="685" height="205" as="geometry"/>
                </mxCell>
                <mxCell id="i9V1KB0DLarKF3yOu1jW-32" value="&lt;b&gt;&lt;font style=&quot;font-size: 35px&quot;&gt;login&lt;/font&gt;&lt;/b&gt;" style="points=[[0,0.5,0],[0.24,0,0],[0.5,0.28,0],[0.995,0.475,0],[0.5,0.72,0],[0.24,1,0]];verticalLabelPosition=bottom;html=1;verticalAlign=top;aspect=fixed;align=center;pointerEvents=1;shape=mxgraph.cisco19.key;strokeColor=none;rounded=0;sketch=0;fontFamily=Lucida Console;fontSize=25;fontColor=#143642;fillColor=#000000;" parent="i9V1KB0DLarKF3yOu1jW-58" vertex="1">
                    <mxGeometry x="86" y="39.5" width="153.33" height="69" as="geometry"/>
                </mxCell>
                <mxCell id="U2APOLvZmVnuvDlF9ksb-71" value="" style="group;" parent="1" vertex="1" connectable="0">
                    <mxGeometry x="-180" y="-360" width="750" height="930" as="geometry"/>
                </mxCell>
                <mxCell id="U2APOLvZmVnuvDlF9ksb-70" value="" style="rounded=0;whiteSpace=wrap;html=1;sketch=0;fontFamily=Lucida Console;fontSize=14;fillColor=none;strokeWidth=1;strokeColor=#0F8B8D;" parent="U2APOLvZmVnuvDlF9ksb-71" vertex="1">
                    <mxGeometry width="750" height="830" as="geometry"/>
                </mxCell>
                <mxCell id="U2APOLvZmVnuvDlF9ksb-2" value="dashboard" style="rounded=0;whiteSpace=wrap;html=1;strokeColor=#0F8B8D;fontColor=#143642;fillColor=#FFFFFF;" parent="U2APOLvZmVnuvDlF9ksb-71" vertex="1">
                    <mxGeometry x="60" y="610" width="120" height="60" as="geometry"/>
                </mxCell>
                <mxCell id="U2APOLvZmVnuvDlF9ksb-3" value="cadastrar jogos" style="rounded=0;whiteSpace=wrap;html=1;strokeColor=#0F8B8D;fontColor=#143642;fillColor=#FFFFFF;" parent="U2APOLvZmVnuvDlF9ksb-71" vertex="1">
                    <mxGeometry x="480" y="610" width="120" height="60" as="geometry"/>
                </mxCell>
                <mxCell id="U2APOLvZmVnuvDlF9ksb-4" value="cadastrar experiência" style="rounded=0;whiteSpace=wrap;html=1;strokeColor=#0F8B8D;fontColor=#143642;fillColor=#FFFFFF;" parent="U2APOLvZmVnuvDlF9ksb-71" vertex="1">
                    <mxGeometry x="60" y="730" width="120" height="60" as="geometry"/>
                </mxCell>
                <mxCell id="U2APOLvZmVnuvDlF9ksb-39" style="edgeStyle=orthogonalEdgeStyle;curved=0;rounded=1;sketch=0;orthogonalLoop=1;jettySize=auto;html=1;fontSize=12;fontColor=#143642;endArrow=classic;endFill=1;strokeColor=#A8201A;fillColor=#FAE5C7;labelBackgroundColor=#DAD2D8;" parent="U2APOLvZmVnuvDlF9ksb-71" source="U2APOLvZmVnuvDlF9ksb-2" target="U2APOLvZmVnuvDlF9ksb-4" edge="1">
                    <mxGeometry relative="1" as="geometry"/>
                </mxCell>
                <mxCell id="U2APOLvZmVnuvDlF9ksb-5" value="login" style="rounded=0;whiteSpace=wrap;html=1;strokeColor=#0F8B8D;fontColor=#143642;fillColor=#FFFFFF;" parent="U2APOLvZmVnuvDlF9ksb-71" vertex="1">
                    <mxGeometry x="430" y="130" width="120" height="60" as="geometry"/>
                </mxCell>
                <mxCell id="U2APOLvZmVnuvDlF9ksb-38" style="edgeStyle=orthogonalEdgeStyle;curved=0;rounded=1;sketch=0;orthogonalLoop=1;jettySize=auto;html=1;fontSize=12;fontColor=#143642;endArrow=classic;endFill=1;strokeColor=#A8201A;fillColor=#FAE5C7;labelBackgroundColor=#DAD2D8;" parent="U2APOLvZmVnuvDlF9ksb-71" source="U2APOLvZmVnuvDlF9ksb-6" target="U2APOLvZmVnuvDlF9ksb-2" edge="1">
                    <mxGeometry relative="1" as="geometry"/>
                </mxCell>
                <mxCell id="U2APOLvZmVnuvDlF9ksb-6" value="usuário&lt;span style=&quot;color: rgba(0 , 0 , 0 , 0) ; font-family: monospace ; font-size: 0px&quot;&gt;%3CmxGraphModel%3E%3Croot%3E%3CmxCell%20id%3D%220%22%2F%3E%3CmxCell%20id%3D%221%22%20parent%3D%220%22%2F%3E%3CmxCell%20id%3D%222%22%20value%3D%22login%22%20style%3D%22rounded%3D0%3BwhiteSpace%3Dwrap%3Bhtml%3D1%3B%22%20vertex%3D%221%22%20parent%3D%221%22%3E%3CmxGeometry%20x%3D%22590%22%20y%3D%22190%22%20width%3D%22120%22%20height%3D%2260%22%20as%3D%22geometry%22%2F%3E%3C%2FmxCell%3E%3C%2Froot%3E%3C%2FmxGraphModel%3E&lt;/span&gt;" style="rounded=0;whiteSpace=wrap;html=1;strokeColor=#0F8B8D;fontColor=#143642;fillColor=#66FF66;" parent="U2APOLvZmVnuvDlF9ksb-71" vertex="1">
                    <mxGeometry x="130" y="490" width="120" height="60" as="geometry"/>
                </mxCell>
                <mxCell id="U2APOLvZmVnuvDlF9ksb-42" style="edgeStyle=orthogonalEdgeStyle;curved=0;rounded=1;sketch=0;orthogonalLoop=1;jettySize=auto;html=1;fontSize=12;fontColor=#143642;endArrow=classic;endFill=1;strokeColor=#A8201A;fillColor=#FAE5C7;labelBackgroundColor=#DAD2D8;" parent="U2APOLvZmVnuvDlF9ksb-71" source="U2APOLvZmVnuvDlF9ksb-11" target="U2APOLvZmVnuvDlF9ksb-3" edge="1">
                    <mxGeometry relative="1" as="geometry"/>
                </mxCell>
                <mxCell id="U2APOLvZmVnuvDlF9ksb-11" value="admin" style="rounded=0;whiteSpace=wrap;html=1;strokeColor=#0F8B8D;fontColor=#143642;fillColor=#66FF66;" parent="U2APOLvZmVnuvDlF9ksb-71" vertex="1">
                    <mxGeometry x="400" y="490" width="120" height="60" as="geometry"/>
                </mxCell>
                <mxCell id="U2APOLvZmVnuvDlF9ksb-20" style="edgeStyle=orthogonalEdgeStyle;curved=0;rounded=1;sketch=0;orthogonalLoop=1;jettySize=auto;html=1;fontColor=#143642;strokeColor=#A8201A;fillColor=#FAE5C7;startArrow=none;labelBackgroundColor=#DAD2D8;" parent="U2APOLvZmVnuvDlF9ksb-71" source="U2APOLvZmVnuvDlF9ksb-25" target="U2APOLvZmVnuvDlF9ksb-6" edge="1">
                    <mxGeometry relative="1" as="geometry"/>
                </mxCell>
                <mxCell id="U2APOLvZmVnuvDlF9ksb-19" value="decisão" style="rhombus;whiteSpace=wrap;html=1;rounded=0;sketch=0;fontColor=#143642;strokeColor=#0F8B8D;fillColor=#FAE5C7;" parent="U2APOLvZmVnuvDlF9ksb-71" vertex="1">
                    <mxGeometry x="450" y="250" width="80" height="80" as="geometry"/>
                </mxCell>
                <mxCell id="U2APOLvZmVnuvDlF9ksb-17" style="edgeStyle=none;rounded=0;orthogonalLoop=1;jettySize=auto;html=1;strokeColor=#A8201A;fontColor=#143642;labelBackgroundColor=#DAD2D8;" parent="U2APOLvZmVnuvDlF9ksb-71" source="U2APOLvZmVnuvDlF9ksb-5" target="U2APOLvZmVnuvDlF9ksb-19" edge="1">
                    <mxGeometry relative="1" as="geometry"/>
                </mxCell>
                <mxCell id="U2APOLvZmVnuvDlF9ksb-27" style="edgeStyle=orthogonalEdgeStyle;curved=0;rounded=1;sketch=0;orthogonalLoop=1;jettySize=auto;html=1;fontSize=15;fontColor=#143642;strokeColor=#A8201A;fillColor=#FAE5C7;labelBackgroundColor=#DAD2D8;" parent="U2APOLvZmVnuvDlF9ksb-71" source="U2APOLvZmVnuvDlF9ksb-25" target="U2APOLvZmVnuvDlF9ksb-11" edge="1">
                    <mxGeometry relative="1" as="geometry"/>
                </mxCell>
                <mxCell id="U2APOLvZmVnuvDlF9ksb-25" value="se sim" style="rounded=0;whiteSpace=wrap;html=1;sketch=0;fontSize=15;strokeColor=#0F8B8D;fillColor=#FAE5C7;fontColor=#143642;" parent="U2APOLvZmVnuvDlF9ksb-71" vertex="1">
                    <mxGeometry x="300" y="405" width="60" height="30" as="geometry"/>
                </mxCell>
                <mxCell id="U2APOLvZmVnuvDlF9ksb-26" value="" style="edgeStyle=orthogonalEdgeStyle;curved=0;rounded=1;sketch=0;orthogonalLoop=1;jettySize=auto;html=1;fontColor=#143642;strokeColor=#A8201A;fillColor=#FAE5C7;endArrow=none;labelBackgroundColor=#DAD2D8;" parent="U2APOLvZmVnuvDlF9ksb-71" source="U2APOLvZmVnuvDlF9ksb-19" target="U2APOLvZmVnuvDlF9ksb-25" edge="1">
                    <mxGeometry relative="1" as="geometry">
                        <mxPoint x="330" y="370" as="sourcePoint"/>
                        <mxPoint x="210" y="490" as="targetPoint"/>
                    </mxGeometry>
                </mxCell>
                <mxCell id="U2APOLvZmVnuvDlF9ksb-28" value="lista de jogos" style="rounded=0;whiteSpace=wrap;html=1;sketch=0;fontSize=12;fontColor=#143642;strokeColor=#0F8B8D;fillColor=#FFFFFF;" parent="U2APOLvZmVnuvDlF9ksb-71" vertex="1">
                    <mxGeometry x="580" y="490" width="120" height="60" as="geometry"/>
                </mxCell>
                <mxCell id="U2APOLvZmVnuvDlF9ksb-34" style="edgeStyle=orthogonalEdgeStyle;curved=0;rounded=1;sketch=0;orthogonalLoop=1;jettySize=auto;html=1;fontSize=12;fontColor=#143642;endArrow=classic;endFill=1;strokeColor=#A8201A;fillColor=#FAE5C7;labelBackgroundColor=#DAD2D8;" parent="U2APOLvZmVnuvDlF9ksb-71" source="U2APOLvZmVnuvDlF9ksb-33" target="U2APOLvZmVnuvDlF9ksb-28" edge="1">
                    <mxGeometry relative="1" as="geometry"/>
                </mxCell>
                <mxCell id="U2APOLvZmVnuvDlF9ksb-33" value="se não" style="rounded=0;whiteSpace=wrap;html=1;sketch=0;fontSize=15;strokeColor=#0F8B8D;fillColor=#FAE5C7;fontColor=#143642;" parent="U2APOLvZmVnuvDlF9ksb-71" vertex="1">
                    <mxGeometry x="610" y="405" width="60" height="30" as="geometry"/>
                </mxCell>
                <mxCell id="U2APOLvZmVnuvDlF9ksb-32" value="" style="edgeStyle=orthogonalEdgeStyle;curved=0;rounded=1;sketch=0;orthogonalLoop=1;jettySize=auto;html=1;fontSize=12;fontColor=#143642;strokeColor=#A8201A;fillColor=#FAE5C7;entryX=0.5;entryY=0;entryDx=0;entryDy=0;endArrow=none;endFill=0;labelBackgroundColor=#DAD2D8;" parent="U2APOLvZmVnuvDlF9ksb-71" source="U2APOLvZmVnuvDlF9ksb-19" target="U2APOLvZmVnuvDlF9ksb-33" edge="1">
                    <mxGeometry relative="1" as="geometry">
                        <mxPoint x="590" y="270" as="targetPoint"/>
                    </mxGeometry>
                </mxCell>
                <mxCell id="U2APOLvZmVnuvDlF9ksb-36" value="lista de jogos" style="rounded=0;whiteSpace=wrap;html=1;sketch=0;fontSize=12;fontColor=#143642;strokeColor=#0F8B8D;fillColor=#FFFFFF;" parent="U2APOLvZmVnuvDlF9ksb-71" vertex="1">
                    <mxGeometry x="210" y="610" width="120" height="60" as="geometry"/>
                </mxCell>
                <mxCell id="U2APOLvZmVnuvDlF9ksb-37" style="edgeStyle=orthogonalEdgeStyle;curved=0;rounded=1;sketch=0;orthogonalLoop=1;jettySize=auto;html=1;fontSize=12;fontColor=#143642;endArrow=classic;endFill=1;strokeColor=#A8201A;fillColor=#FAE5C7;labelBackgroundColor=#DAD2D8;" parent="U2APOLvZmVnuvDlF9ksb-71" source="U2APOLvZmVnuvDlF9ksb-6" target="U2APOLvZmVnuvDlF9ksb-36" edge="1">
                    <mxGeometry relative="1" as="geometry"/>
                </mxCell>
                <mxCell id="U2APOLvZmVnuvDlF9ksb-40" value="lista de jogos" style="rounded=0;whiteSpace=wrap;html=1;sketch=0;fontSize=12;fontColor=#143642;strokeColor=#0F8B8D;fillColor=#FFFFFF;" parent="U2APOLvZmVnuvDlF9ksb-71" vertex="1">
                    <mxGeometry x="350" y="610" width="120" height="60" as="geometry"/>
                </mxCell>
                <mxCell id="U2APOLvZmVnuvDlF9ksb-41" style="edgeStyle=orthogonalEdgeStyle;curved=0;rounded=1;sketch=0;orthogonalLoop=1;jettySize=auto;html=1;fontSize=12;fontColor=#143642;endArrow=classic;endFill=1;strokeColor=#A8201A;fillColor=#FAE5C7;labelBackgroundColor=#DAD2D8;" parent="U2APOLvZmVnuvDlF9ksb-71" source="U2APOLvZmVnuvDlF9ksb-11" target="U2APOLvZmVnuvDlF9ksb-40" edge="1">
                    <mxGeometry relative="1" as="geometry"/>
                </mxCell>
                <mxCell id="U2APOLvZmVnuvDlF9ksb-66" value="" style="group" parent="U2APOLvZmVnuvDlF9ksb-71" vertex="1" connectable="0">
                    <mxGeometry x="50" y="120" width="180" height="220" as="geometry"/>
                </mxCell>
                <mxCell id="U2APOLvZmVnuvDlF9ksb-63" value="" style="group" parent="U2APOLvZmVnuvDlF9ksb-66" vertex="1" connectable="0">
                    <mxGeometry width="180" height="220" as="geometry"/>
                </mxCell>
                <mxCell id="U2APOLvZmVnuvDlF9ksb-69" value="" style="group" parent="U2APOLvZmVnuvDlF9ksb-63" vertex="1" connectable="0">
                    <mxGeometry width="180" height="172.17391304347828" as="geometry"/>
                </mxCell>
                <mxCell id="U2APOLvZmVnuvDlF9ksb-48" value="" style="rounded=0;whiteSpace=wrap;html=1;sketch=0;fontColor=#143642;strokeColor=#0F8B8D;fillColor=#FFFFFF;" parent="U2APOLvZmVnuvDlF9ksb-69" vertex="1">
                    <mxGeometry width="180" height="172.17391304347828" as="geometry"/>
                </mxCell>
                <mxCell id="U2APOLvZmVnuvDlF9ksb-67" value="" style="group" parent="U2APOLvZmVnuvDlF9ksb-69" vertex="1" connectable="0">
                    <mxGeometry x="20" y="47.82608695652175" width="100" height="92.78260869565219" as="geometry"/>
                </mxCell>
                <mxCell id="U2APOLvZmVnuvDlF9ksb-56" value="" style="group" parent="U2APOLvZmVnuvDlF9ksb-67" vertex="1" connectable="0">
                    <mxGeometry width="100" height="16.260869565217394" as="geometry"/>
                </mxCell>
                <mxCell id="U2APOLvZmVnuvDlF9ksb-49" value="" style="rounded=0;whiteSpace=wrap;html=1;sketch=0;fontColor=#143642;strokeColor=#0F8B8D;fillColor=#66FF66;" parent="U2APOLvZmVnuvDlF9ksb-56" vertex="1">
                    <mxGeometry x="70" width="30" height="16.260869565217394" as="geometry"/>
                </mxCell>
                <mxCell id="U2APOLvZmVnuvDlF9ksb-55" value="- Pessoas" style="text;html=1;strokeColor=none;fillColor=none;align=center;verticalAlign=middle;whiteSpace=wrap;rounded=0;sketch=0;fontColor=#143642;fontFamily=Lucida Console;container=0;" parent="U2APOLvZmVnuvDlF9ksb-56" vertex="1">
                    <mxGeometry width="70" height="16.260869565217394" as="geometry"/>
                </mxCell>
                <mxCell id="U2APOLvZmVnuvDlF9ksb-60" value="" style="group" parent="U2APOLvZmVnuvDlF9ksb-67" vertex="1" connectable="0">
                    <mxGeometry y="76.52173913043478" width="100" height="16.260869565217394" as="geometry"/>
                </mxCell>
                <mxCell id="U2APOLvZmVnuvDlF9ksb-65" value="" style="group" parent="U2APOLvZmVnuvDlF9ksb-60" vertex="1" connectable="0">
                    <mxGeometry width="100" height="16.260869565217394" as="geometry"/>
                </mxCell>
                <mxCell id="U2APOLvZmVnuvDlF9ksb-61" value="" style="rounded=0;whiteSpace=wrap;html=1;sketch=0;fontColor=#143642;strokeColor=#0F8B8D;fillColor=#FFF2CC;" parent="U2APOLvZmVnuvDlF9ksb-65" vertex="1">
                    <mxGeometry x="70" width="30" height="16.260869565217394" as="geometry"/>
                </mxCell>
                <mxCell id="U2APOLvZmVnuvDlF9ksb-62" value="- Fluxo" style="text;html=1;strokeColor=none;fillColor=none;align=center;verticalAlign=middle;whiteSpace=wrap;rounded=0;sketch=0;fontColor=#143642;fontFamily=Lucida Console;container=0;" parent="U2APOLvZmVnuvDlF9ksb-65" vertex="1">
                    <mxGeometry width="70" height="16.260869565217394" as="geometry"/>
                </mxCell>
                <mxCell id="U2APOLvZmVnuvDlF9ksb-57" value="" style="group" parent="U2APOLvZmVnuvDlF9ksb-67" vertex="1" connectable="0">
                    <mxGeometry y="38.26086956521739" width="100" height="16.260869565217394" as="geometry"/>
                </mxCell>
                <mxCell id="U2APOLvZmVnuvDlF9ksb-58" value="" style="rounded=0;whiteSpace=wrap;html=1;sketch=0;fontColor=#143642;strokeColor=#0F8B8D;fillColor=#FFFFFF;" parent="U2APOLvZmVnuvDlF9ksb-57" vertex="1">
                    <mxGeometry x="70" width="30" height="16.260869565217394" as="geometry"/>
                </mxCell>
                <mxCell id="U2APOLvZmVnuvDlF9ksb-59" value="- Telas" style="text;html=1;strokeColor=none;fillColor=none;align=center;verticalAlign=middle;whiteSpace=wrap;rounded=0;sketch=0;fontColor=#143642;fontFamily=Lucida Console;container=0;" parent="U2APOLvZmVnuvDlF9ksb-57" vertex="1">
                    <mxGeometry width="70" height="16.260869565217394" as="geometry"/>
                </mxCell>
                <mxCell id="U2APOLvZmVnuvDlF9ksb-45" value="Legenda:" style="text;html=1;strokeColor=none;fillColor=none;align=center;verticalAlign=middle;whiteSpace=wrap;rounded=0;sketch=0;fontColor=#143642;fontSize=14;fontStyle=1;fontFamily=Lucida Console;" parent="U2APOLvZmVnuvDlF9ksb-66" vertex="1">
                    <mxGeometry x="20" y="8.130434782608688" width="40" height="16.260869565217394" as="geometry"/>
                </mxCell>
                <mxCell id="U2APOLvZmVnuvDlF9ksb-72" value="FLUXO" style="text;html=1;align=center;verticalAlign=middle;whiteSpace=wrap;rounded=0;sketch=0;fontFamily=Lucida Console;fontSize=41;fontColor=#143642;fontStyle=1;" parent="U2APOLvZmVnuvDlF9ksb-71" vertex="1">
                    <mxGeometry x="275" y="30" width="200" height="50" as="geometry"/>
                </mxCell>
                <mxCell id="51" value="" style="group" vertex="1" connectable="0" parent="1">
                    <mxGeometry x="953" y="-584" width="956" height="1024" as="geometry"/>
                </mxCell>
                <mxCell id="50" value="" style="rounded=0;whiteSpace=wrap;html=1;sketch=0;fillColor=none;gradientColor=#ffffff;fontColor=#000000;" vertex="1" parent="51">
                    <mxGeometry width="956" height="1024" as="geometry"/>
                </mxCell>
                <mxCell id="48" value="" style="group" vertex="1" connectable="0" parent="51">
                    <mxGeometry x="75" y="96.99999999999994" width="434.27" height="99" as="geometry"/>
                </mxCell>
                <mxCell id="5" value="&lt;font style=&quot;font-size: 70px&quot;&gt;Métodos&lt;/font&gt;" style="text;html=1;align=center;verticalAlign=middle;whiteSpace=wrap;rounded=0;sketch=0;fontFamily=Lucida Console;fontSize=41;fontStyle=1;perimeterSpacing=0;gradientColor=#ffffff;fontColor=#000000;" vertex="1" parent="48">
                    <mxGeometry x="114.99727272727273" y="15.4375" width="319.27272727272725" height="68.125" as="geometry"/>
                </mxCell>
                <mxCell id="45" value="" style="verticalLabelPosition=bottom;html=1;verticalAlign=top;align=center;strokeColor=none;shape=mxgraph.azure.worker_roles;sketch=0;fillColor=#000000;" vertex="1" parent="48">
                    <mxGeometry width="109.53" height="99" as="geometry"/>
                </mxCell>
            </root>
        </mxGraphModel>
    </diagram>
</mxfile>